<svg xmlns="http://www.w3.org/2000/svg" viewBox="0 0 980 620" role="img" aria-labelledby="title desc">
  <title id="title">Roulette board visualization preview</title>
  <desc id="desc">Preview of a roulette board heatmap with net profit per number and selected strategy metrics.</desc>
  <defs>
    <linearGradient id="panel" x1="0" x2="1" y1="0" y2="1">
      <stop offset="0%" stop-color="#101418"/>
      <stop offset="100%" stop-color="#18212a"/>
    </linearGradient>
  </defs>
  <rect width="980" height="620" rx="18" fill="#0e1116"/>
  <rect x="28" y="28" width="924" height="564" rx="12" fill="url(#panel)" stroke="#2b3642"/>
  <text x="58" y="78" font-family="Arial, sans-serif" font-size="34" font-weight="800" fill="#f8fafc">Roulette Board Heatmap</text>
  <text x="58" y="112" font-family="Arial, sans-serif" font-size="17" fill="#94a3b8">Best combo detail, net profit per number, covered zones and explosive hits.</text>

  <g transform="translate(58 148)">
    <rect x="0" y="0" width="864" height="292" rx="8" fill="#0f5132" stroke="#d1d5db" stroke-width="3"/>
    <rect x="16" y="16" width="80" height="260" fill="#11452f" stroke="#d1d5db" stroke-width="2"/>
    <text x="56" y="154" text-anchor="middle" font-family="Arial, sans-serif" font-size="42" font-weight="800" fill="#e5e7eb">0</text>
    <text x="56" y="190" text-anchor="middle" font-family="Arial, sans-serif" font-size="17" fill="#cbd5e1">-100</text>

    <g font-family="Arial, sans-serif" text-anchor="middle" font-weight="800">
      <rect x="108" y="16" width="62" height="84" fill="#111827" stroke="#d1d5db"/>
      <text x="139" y="52" font-size="22" fill="#ffffff">3</text><text x="139" y="78" font-size="13" fill="#cbd5e1">-70</text>
      <rect x="170" y="16" width="62" height="84" fill="#8f1d1d" stroke="#d1d5db"/>
      <text x="201" y="52" font-size="22" fill="#ffffff">6</text><text x="201" y="78" font-size="13" fill="#cbd5e1">-42</text>
      <rect x="232" y="16" width="62" height="84" fill="#111827" stroke="#d1d5db"/>
      <text x="263" y="52" font-size="22" fill="#ffffff">9</text><text x="263" y="78" font-size="13" fill="#cbd5e1">18</text>
      <rect x="294" y="16" width="62" height="84" fill="#8f1d1d" stroke="#d1d5db"/>
      <text x="325" y="52" font-size="22" fill="#ffffff">12</text><text x="325" y="78" font-size="13" fill="#cbd5e1">24</text>
      <rect x="356" y="16" width="62" height="84" fill="#111827" stroke="#d1d5db"/>
      <text x="387" y="52" font-size="22" fill="#ffffff">15</text><text x="387" y="78" font-size="13" fill="#cbd5e1">36</text>
      <rect x="418" y="16" width="62" height="84" fill="#8f1d1d" stroke="#d1d5db"/>
      <text x="449" y="52" font-size="22" fill="#ffffff">18</text><text x="449" y="78" font-size="13" fill="#cbd5e1">44</text>
      <rect x="480" y="16" width="62" height="84" fill="#8f1d1d" stroke="#d1d5db"/>
      <text x="511" y="52" font-size="22" fill="#ffffff">21</text><text x="511" y="78" font-size="13" fill="#cbd5e1">38</text>
      <rect x="542" y="16" width="62" height="84" fill="#111827" stroke="#d1d5db"/>
      <text x="573" y="52" font-size="22" fill="#ffffff">24</text><text x="573" y="78" font-size="13" fill="#cbd5e1">22</text>
      <rect x="604" y="16" width="62" height="84" fill="#8f1d1d" stroke="#d1d5db"/>
      <text x="635" y="52" font-size="22" fill="#ffffff">27</text><text x="635" y="78" font-size="13" fill="#cbd5e1">-12</text>
      <rect x="666" y="16" width="62" height="84" fill="#8f1d1d" stroke="#d1d5db"/>
      <text x="697" y="52" font-size="22" fill="#ffffff">30</text><text x="697" y="78" font-size="13" fill="#cbd5e1">-44</text>
      <rect x="728" y="16" width="62" height="84" fill="#111827" stroke="#d1d5db"/>
      <text x="759" y="52" font-size="22" fill="#ffffff">33</text><text x="759" y="78" font-size="13" fill="#cbd5e1">-82</text>
      <rect x="790" y="16" width="58" height="84" fill="#8f1d1d" stroke="#d1d5db"/>
      <text x="819" y="52" font-size="22" fill="#ffffff">36</text><text x="819" y="78" font-size="13" fill="#cbd5e1">-100</text>

      <g opacity="0.96">
        <rect x="108" y="100" width="62" height="84" fill="#8f1d1d" stroke="#d1d5db"/>
        <rect x="170" y="100" width="62" height="84" fill="#111827" stroke="#d1d5db"/>
        <rect x="232" y="100" width="62" height="84" fill="#111827" stroke="#d1d5db"/>
        <rect x="294" y="100" width="62" height="84" fill="#111827" stroke="#d1d5db"/>
        <rect x="356" y="100" width="62" height="84" fill="#8f1d1d" stroke="#d1d5db"/>
        <rect x="418" y="100" width="62" height="84" fill="#8f1d1d" stroke="#d1d5db"/>
        <rect x="480" y="100" width="62" height="84" fill="#111827" stroke="#d1d5db"/>
        <rect x="542" y="100" width="62" height="84" fill="#8f1d1d" stroke="#d1d5db"/>
        <rect x="604" y="100" width="62" height="84" fill="#111827" stroke="#d1d5db"/>
        <rect x="666" y="100" width="62" height="84" fill="#111827" stroke="#d1d5db"/>
        <rect x="728" y="100" width="62" height="84" fill="#8f1d1d" stroke="#d1d5db"/>
        <rect x="790" y="100" width="58" height="84" fill="#111827" stroke="#d1d5db"/>
      </g>
      <circle cx="449" cy="142" r="40" fill="#2dd4bf" opacity="0.32"/>
      <circle cx="387" cy="142" r="28" fill="#22c55e" opacity="0.55"/>
      <circle cx="449" cy="58" r="30" fill="#f2c94c" opacity="0.75"/>
      <circle cx="325" cy="226" r="46" fill="#7c3aed" opacity="0.52"/>
      <text x="325" y="232" font-size="24" fill="#ffffff">17</text>
      <text x="449" y="148" font-size="24" fill="#ffffff">20</text>
      <text x="387" y="148" font-size="24" fill="#ffffff">16</text>
    </g>
  </g>

  <g transform="translate(58 478)" font-family="Arial, sans-serif">
    <rect width="166" height="78" rx="8" fill="#151a1f" stroke="#2b3642"/>
    <rect x="182" width="166" height="78" rx="8" fill="#151a1f" stroke="#2b3642"/>
    <rect x="364" width="166" height="78" rx="8" fill="#151a1f" stroke="#2b3642"/>
    <rect x="546" width="166" height="78" rx="8" fill="#151a1f" stroke="#2b3642"/>
    <text x="18" y="30" font-size="15" fill="#94a3b8">Coverage</text><text x="18" y="58" font-size="28" font-weight="800" fill="#ffffff">64.9%</text>
    <text x="200" y="30" font-size="15" fill="#94a3b8">Profit prob.</text><text x="200" y="58" font-size="28" font-weight="800" fill="#ffffff">29.7%</text>
    <text x="382" y="30" font-size="15" fill="#94a3b8">Max profit</text><text x="382" y="58" font-size="28" font-weight="800" fill="#ffffff">199</text>
    <text x="564" y="30" font-size="15" fill="#94a3b8">EV</text><text x="564" y="58" font-size="28" font-weight="800" fill="#ffffff">-2.70</text>
  </g>
</svg>
